<svg width="277" height="277" viewBox="0 0 277 277" fill="none" xmlns="http://www.w3.org/2000/svg">
<g clip-path="url(#clip0)">
<path d="M33.144 2.471C15.336 2.471 0.849998 16.958 0.849998 34.765C0.849998 52.572 15.33 67.058 33.144 67.058C50.958 67.058 65.438 52.572 65.438 34.765C65.438 16.958 50.951 2.471 33.144 2.471Z" fill="#535151"/>
<path d="M137.663 2.471C119.856 2.471 105.369 16.958 105.369 34.765C105.369 52.572 119.856 67.058 137.663 67.058C155.471 67.058 169.96 52.572 169.96 34.765C169.96 16.958 155.477 2.471 137.663 2.471Z" fill="#535151"/>
<path d="M243.873 67.059C261.677 67.059 276.167 52.573 276.167 34.766C276.167 16.959 261.689 2.471 243.873 2.471C226.057 2.471 211.579 16.958 211.579 34.765C211.579 52.572 226.068 67.059 243.873 67.059Z" fill="#535151"/>
<path d="M32.3 170.539C50.107 170.539 64.597 156.056 64.597 138.246C64.597 120.435 50.107 105.949 32.3 105.949C14.493 105.949 0 120.436 0 138.246C0 156.056 14.493 170.539 32.3 170.539Z" fill="#535151"/>
<path d="M136.819 170.539C154.623 170.539 169.113 156.056 169.113 138.246C169.113 120.435 154.635 105.949 136.819 105.949C119.006 105.949 104.525 120.435 104.525 138.246C104.525 156.056 119.012 170.539 136.819 170.539Z" fill="#535151"/>
<path d="M243.038 170.539C260.849 170.539 275.332 156.056 275.332 138.246C275.332 120.435 260.849 105.949 243.038 105.949C225.227 105.949 210.732 120.435 210.732 138.246C210.732 156.056 225.222 170.539 243.038 170.539Z" fill="#535151"/>
<path d="M33.039 209.108C15.232 209.108 0.738998 223.591 0.738998 241.402C0.738998 259.206 15.232 273.695 33.039 273.695C50.846 273.695 65.332 259.213 65.332 241.402C65.332 223.591 50.846 209.108 33.039 209.108Z" fill="#535151"/>
<path d="M137.564 209.108C119.756 209.108 105.264 223.591 105.264 241.402C105.264 259.206 119.751 273.695 137.564 273.695C155.368 273.695 169.857 259.213 169.857 241.402C169.857 223.591 155.368 209.108 137.564 209.108Z" fill="#535151"/>
<path d="M243.771 209.108C225.967 209.108 211.477 223.591 211.477 241.402C211.477 259.206 225.967 273.695 243.771 273.695C261.582 273.695 276.065 259.213 276.065 241.402C276.065 223.591 261.575 209.108 243.771 209.108Z" fill="#535151"/>
</g>
<defs>
<clipPath id="clip0">
<rect width="276.167" height="276.167" fill="white"/>
</clipPath>
</defs>
</svg>
